<svg xmlns="http://www.w3.org/2000/svg" xmlns:xlink="http://www.w3.org/1999/xlink" xml:space="preserve" version="1.1" style="shape-rendering:geometricPrecision;text-rendering:geometricPrecision;image-rendering:optimizeQuality;" viewBox="0 0 846.66 1058.325" x="0px" y="0px" fill-rule="evenodd" clip-rule="evenodd"><defs><style type="text/css">
   
    .fil0 {fill:black;fill-rule:nonzero}
   
  </style></defs><g><path class="fil0" d="M227.81 231.06c20.92,33.81 14.88,77.67 13.74,127.4 29.99,-124.26 -14.1,-135.28 -28.97,-208.25 -56.92,-142.04 178.27,-200.41 212.25,-96.79 11.94,21.06 38.65,133.13 100.95,172.19 -56.79,-65.28 -51.38,-80 -74.54,-141.27 159.95,230.43 147.28,-58.1 236.36,36.04 30.12,32.23 48.11,99.6 76.57,140.67 -9.78,-8 -34.52,-23.58 -40.16,-7.09 -25.83,-19.98 -42.95,-41.63 -61.98,-73.24 1.34,20.7 85.37,116.89 106.97,268.99 -120.14,-181.62 4.65,24.9 -40.65,107.81 -5.79,-0.19 -22.44,-26.94 -35.25,-29.8 -11.19,-53.44 -44.85,-168.29 -71.22,-210.45 68.33,155.56 42.84,240.58 63.24,369.32 -68.85,-134.88 -147.7,-213.54 -152.23,-268.14 -6.16,102.53 174.47,193.3 95.91,427.43 -34.64,-30.04 -27.2,-68.93 -88.77,-103.24 6.81,-117.17 -114.77,-243.25 -91.37,-324.61 -41.6,76.04 143.44,296.25 47.93,374.81 -24.5,-72.83 -63.81,-64.63 -94.3,-118.66 11.38,-94.88 -26.78,-189.34 -49.98,-213.92 47.16,93.82 47.31,175.82 21.03,270.89 -39.36,-53.98 -90.22,-49.01 -86.59,-131.11 25.82,-82.9 2.07,-130.16 -14.02,-178.52 37.7,179.96 -8.05,164.83 -42.89,229.66 -31.3,-32.81 -11.76,-89.77 -53.18,-131.04 2.09,-72.55 -24.18,-106.18 25.39,-166.27 -67.54,57.13 -18.27,139.22 -55.83,215.52 -13.46,-56.24 -69.19,-145.94 -68.56,-192.35 1.11,-77.02 172.44,6.58 150.15,-145.98zm105.78 2.24c15.46,-18.41 31.98,-22.38 53.75,-12 56.85,19.44 20.49,-58.62 -37.46,-46.64 -57.81,11.94 -61.69,102.98 -16.29,58.64zm8.44 -140.03c8.95,74.29 80.25,16.3 40.87,-41.8 -1.27,30.47 -20.9,46.78 -40.87,41.8zm-107.23 11.26c1.54,78.11 85.77,59.9 61.6,-0.22 -23.51,20 -37.37,27.17 -61.6,0.22z"/></g><text x="0" y="861.66" fill="#000000" font-size="5px" font-weight="bold" font-family="'Helvetica Neue', Helvetica, Arial-Unicode, Arial, Sans-serif">Created by ima</text><text x="0" y="866.66" fill="#000000" font-size="5px" font-weight="bold" font-family="'Helvetica Neue', Helvetica, Arial-Unicode, Arial, Sans-serif">from the Noun Project</text></svg>