<svg xmlns="http://www.w3.org/2000/svg" viewBox="0 0 182 227.5" fill="none" x="0px" y="0px"><path fill-rule="evenodd" clip-rule="evenodd" d="M112.684 96.2951C115.413 87.1249 117.003 77.882 117.003 71.6309C117.003 54.7139 105.36 41 90.9976 41C76.6354 41 64.9925 54.7139 64.9925 71.6309C64.9925 77.8827 66.5826 87.1269 69.3124 96.298C60.3594 103.319 54.5569 113.263 54.5569 119.437C54.5569 129.792 70.873 141 91 141C111.127 141 127.443 129.792 127.443 119.437C127.443 113.262 121.639 103.316 112.684 96.2951ZM101.588 89.5297C101.588 87.2134 102.96 85.1797 104.647 83.5929C105.366 82.9166 105.984 82.442 106.514 82.035C108.923 80.1855 109.517 79.7294 109.517 68.0824C109.517 56.7934 102.711 47.6418 90.4408 47.6418C78.1711 47.6418 71.3447 56.7934 71.3447 68.0824C71.3447 79.4642 71.9908 80.0013 74.6225 82.1889L74.6226 82.1889C75.0938 82.5807 75.6288 83.0253 76.2351 83.5946C77.9237 85.1803 79.2947 87.2144 79.2947 89.5308V98.3148C79.2947 104.471 84.2854 109.462 90.4416 109.462C96.5979 109.462 101.588 104.471 101.588 98.3148V89.5297ZM74.6873 69.4764C73.9017 67.4612 76.2766 65.4776 78.1798 63.8879L78.1799 63.8879C78.7432 63.4174 79.2652 62.9814 79.6517 62.5893C80.1791 62.0543 80.6007 61.2253 81.045 60.3517C82.0264 58.422 83.1187 56.2743 85.7069 56.5951C88.4533 56.935 89.3075 63.1688 86.6681 66.9495C84.0287 70.7301 75.9304 72.6652 74.6873 69.4764ZM102.702 63.8879C102.139 63.4174 101.617 62.9814 101.23 62.5893C100.703 62.0543 100.282 61.2254 99.8373 60.3518L99.8373 60.3517C98.8558 58.422 97.7635 56.2743 95.1753 56.5951C92.4289 56.935 91.5747 63.1688 94.2141 66.9495C96.8535 70.7301 104.952 72.6652 106.195 69.4764C106.981 67.4612 104.606 65.4776 102.702 63.8879L102.702 63.8879ZM95.4478 83.1091L95.4478 83.1095C95.5287 88.0995 95.7693 102.939 90.443 102.939C85.1168 102.939 85.3574 88.0995 85.4382 83.1095C85.4459 82.6395 85.4521 82.2569 85.4521 81.9823C85.4521 78.7924 87.6866 76.2065 90.443 76.2065C93.1994 76.2065 95.434 78.7924 95.434 81.9823C95.434 82.2568 95.4402 82.6393 95.4478 83.1091Z" fill="black"/><text x="0" y="197" fill="#000000" font-size="5px" font-weight="bold" font-family="'Helvetica Neue', Helvetica, Arial-Unicode, Arial, Sans-serif">Created by Sangyong Lee</text><text x="0" y="202" fill="#000000" font-size="5px" font-weight="bold" font-family="'Helvetica Neue', Helvetica, Arial-Unicode, Arial, Sans-serif">from the Noun Project</text></svg>