<svg xmlns="http://www.w3.org/2000/svg" version="1.1" viewBox="-5.0 -10.0 110.0 135.0">
 <path d="m46.367 47.965c1.2773-2.5859 2.0703-5.8203 2.0703-8.4453 0-1.3203-0.20312-2.4141-0.60156-3.2461-0.57813-1.207-1.6094-1.8984-2.8281-1.8984-2.2344 0-3.4727 2.0469-4.6719 4.0312-0.98438 1.625-2.0039 3.3125-3.4297 3.9023-3.5586 1.4766-4.0898 3.4961-4.0898 4.5703 0 4.0586 3.7344 6.25 7.2539 6.25 2.4141 0 4.6523-1.832 6.3008-5.1602zm-6.3047 2.0352c-1.6602 0-4.125-0.83203-4.125-3.125 0-0.30469 0.58594-1.0312 2.1602-1.6797 2.375-0.98437 3.7812-3.3047 4.9062-5.1719 0.55078-0.91016 1.4609-2.4141 1.9531-2.5156 0.53125 0.64844 0.62891 4-0.8125 7.7422-1.1094 2.8867-2.7109 4.75-4.0781 4.75z"/>
 <path d="m63.098 42.305c-1.4297-0.59375-2.4453-2.2734-3.4297-3.9023-1.1992-1.9805-2.4375-4.0312-4.6719-4.0312-1.2188 0-2.25 0.69141-2.8281 1.8984-0.39844 0.83203-0.60156 1.9219-0.60156 3.2461 0 2.625 0.79688 5.8594 2.0703 8.4453 1.6484 3.3281 3.8828 5.1602 6.3008 5.1602 3.5156 0 7.2539-2.1914 7.2539-6.25 0-1.0703-0.53125-3.0938-4.0898-4.5703zm-3.1602 7.6953c-1.3672 0-2.9688-1.8672-4.0781-4.75-1.4414-3.7422-1.3438-7.0977-0.8125-7.7422 0.48828 0.10156 1.3984 1.6055 1.9492 2.5156 1.1289 1.8672 2.5352 4.1875 4.9062 5.1719 1.5742 0.65234 2.1602 1.375 2.1602 1.6797 0 2.293-2.4688 3.125-4.125 3.125z"/>
 <path d="m54.766 63.234c-1.5547-0.73438-3.3359-0.73438-4.7656-0.73438s-3.207 0-4.7656 0.73438c-1.3906 0.65625-3.0469 2.1484-3.0469 5.5156 0 4.7344 0 6.5039 1.6406 11.43 0.63672 1.9062 0.83203 3.7461 1.0039 5.3672 0.33203 3.1133 0.70703 6.6406 5.1641 6.6406 4.457 0 4.8359-3.5273 5.1641-6.6406 0.17188-1.6211 0.36719-3.4609 1.0039-5.3672 1.6406-4.9297 1.6406-6.6992 1.6406-11.43 0-3.3672-1.6562-4.8555-3.0469-5.5156zm-1.5586 15.961c-0.74219 2.2266-0.96875 4.332-1.1484 6.0234-0.38281 3.5859-0.64062 3.8477-2.0586 3.8477-1.4219 0-1.6758-0.26172-2.0586-3.8477-0.17969-1.6914-0.40234-3.7969-1.1484-6.0234-1.4844-4.4453-1.4844-5.8359-1.4844-10.445 0-2.8281 1.4297-3.125 4.6875-3.125 3.2578 0 4.6875 0.29688 4.6875 3.125 0 4.6055 0 5.9961-1.4844 10.445z"/>
 <path d="m45.555 56.977c-0.46094 0.72656-0.24219 1.6953 0.48828 2.1562 0.72656 0.46094 1.6953 0.24219 2.1562-0.48437 0.57031-0.89844 1.3359-1.8438 1.8047-2.2578 0.46875 0.41016 1.2344 1.3555 1.8047 2.2578 0.29688 0.46875 0.80469 0.72656 1.3203 0.72656 0.28516 0 0.57422-0.078125 0.83203-0.24219 0.73047-0.46094 0.94531-1.4258 0.48828-2.1562-1.1094-1.7578-2.7812-3.8516-4.4453-3.8516-1.6602 0-3.3359 2.0938-4.4453 3.8516z"/>
 <path d="m73.438 50c0-12.715-0.63281-21.828-3.7773-27.953-3.3906-6.6016-9.4531-9.5469-19.66-9.5469-10.211 0-16.273 2.9453-19.66 9.5469-3.1484 6.1289-3.7773 15.242-3.7773 27.953 0 12.715 2.2891 16.75 4.7148 20.633 1.0898 1.7422 2.2188 3.5508 3.1797 6.4258 0.70312 2.1133 1.3047 4.1875 1.8906 6.1953 1.3203 4.5547 2.4609 8.4844 4.3477 11.484 2.2266 3.543 5.2734 5.2656 9.3086 5.2656s7.0781-1.7227 9.3086-5.2656c1.8867-3 3.0273-6.9297 4.3477-11.484 0.58203-2.0078 1.1875-4.082 1.8906-6.1953 0.96094-2.875 2.0859-4.6797 3.1797-6.4258 2.4219-3.8789 4.7148-7.5391 4.7148-20.633zm-10.855 26.07c-0.72266 2.1719-1.3359 4.2773-1.9258 6.3125-2.6875 9.2578-4.5039 14.492-10.656 14.492s-7.9688-5.2344-10.656-14.492c-0.59375-2.0391-1.2031-4.1406-1.9258-6.3125-1.0781-3.2305-2.3594-5.2812-3.4922-7.0938-2.2734-3.6406-4.2422-6.7812-4.2422-18.977s0.57422-20.961 3.4336-26.531c2.8203-5.5 7.8711-7.8438 16.879-7.8438 9.0078 0 14.055 2.3438 16.879 7.8438 2.8594 5.5703 3.4336 14.281 3.4336 26.531s-1.9648 15.336-4.2422 18.977c-1.1328 1.8125-2.4141 3.8633-3.4922 7.0938z"/>
 <path d="m75.312 18.43c-3.3672-5.4258-7.2891-9.9492-11.336-13.078-4.5977-3.5508-9.2969-5.3516-13.977-5.3516s-9.3945 1.8906-14 5.6172c-4.0312 3.2656-7.9492 7.9727-11.328 13.617-6.5469 10.949-10.613 24.535-10.613 35.453 0 7.9219 1.2539 13.289 4.0625 17.41 2.6719 3.918 6.5586 6.5078 11.477 9.7852l0.84375 0.5625c0.26562 0.17969 0.57031 0.26563 0.86719 0.26563 0.50391 0 1-0.24219 1.3008-0.69531 0.48047-0.71875 0.28516-1.6875-0.42969-2.168l-0.84375-0.5625c-9.7148-6.4727-14.148-9.4258-14.148-24.594 0-10.391 3.8984-23.359 10.172-33.852 6.7305-11.258 14.98-17.711 22.641-17.711s15.969 6.1797 22.656 16.953c6.2656 10.094 10.156 22.754 10.156 33.047 0 15.957-4.2422 19.523-14.688 26.734-0.71094 0.48828-0.89062 1.4609-0.39844 2.1719 0.48828 0.71094 1.4609 0.89062 2.1719 0.39844 10.832-7.4766 16.039-11.844 16.039-29.309 0-10.844-4.0703-24.137-10.625-34.695z"/>
<text x="0.0" y="117.5" font-size="5.0" font-weight="bold" font-family="Arbeit Regular, Helvetica, Arial-Unicode, Arial, Sans-serif" fill="#000000">Created by Izwar Muis</text><text x="0.0" y="122.5" font-size="5.0" font-weight="bold" font-family="Arbeit Regular, Helvetica, Arial-Unicode, Arial, Sans-serif" fill="#000000">from Noun Project</text></svg>