<svg xmlns="http://www.w3.org/2000/svg" xmlns:xlink="http://www.w3.org/1999/xlink" version="1.1" x="0px" y="0px" viewBox="0 0 100 125" style="enable-background:new 0 0 100 100;" xml:space="preserve"><style type="text/css">
	.st0{display:none;}
	.st1{display:inline;}
</style><g><path d="M73.35,41.91c1.36-2.46,1.6-6.01,0.56-8.06c-0.52-1.02-1.29-1.21-1.7-1.23c-0.56-0.02-1.08,0.21-1.4,0.61L70.6,43.65   c0,0.21-0.01,0.45-0.04,0.69c0,0.07-0.01,0.13-0.02,0.2C71.92,44,72.82,42.87,73.35,41.91z"/><path d="M42.76,53.13h8.69v-2.03h4.44v2.03h1.36c0.2,0,0.32-0.12,0.37-0.19s0.13-0.22,0.07-0.41c-0.74-2.39-2.91-4-5.41-4h-3.46   v2.43h-4.87V50c-0.74,0.67-1.32,1.52-1.63,2.53c-0.06,0.19,0.02,0.34,0.07,0.41S42.55,53.13,42.76,53.13z"/><path d="M29.41,43.63l-0.21-10.4c-0.32-0.41-0.84-0.65-1.41-0.62c-0.41,0.02-1.18,0.21-1.7,1.23c-1.04,2.05-0.79,5.6,0.56,8.06   c0.53,0.97,1.43,2.1,2.82,2.63c-0.01-0.12-0.02-0.24-0.03-0.36C29.42,44.04,29.41,43.83,29.41,43.63z"/><path d="M60.44,40.02c2.54,0,4.6-2.07,4.6-4.6s-2.07-4.6-4.6-4.6s-4.6,2.07-4.6,4.6S57.9,40.02,60.44,40.02z M60.44,33.39   c1.12,0,2.03,0.91,2.03,2.03c0,1.12-0.91,2.03-2.03,2.03c-1.12,0-2.03-0.91-2.03-2.03C58.41,34.3,59.32,33.39,60.44,33.39z"/><path d="M66.02,65.94h-4.45l-1.05,2.96c-1.58,4.43-5.8,7.41-10.51,7.41c-4.71,0-8.94-2.98-10.52-7.42l-1.05-2.95h-4.47   c-6.79,0-12.31,5.52-12.31,12.31V90h56.67V78.26C78.33,71.47,72.81,65.94,66.02,65.94z"/><path d="M31.47,26.99l2.7-2.75c-1.74-1.98-1.17-4.59-0.53-5.82c0.26-0.5,0.88-0.7,1.38-0.44c0.5,0.26,0.7,0.87,0.44,1.37   c-0.12,0.24-1,2.14,0.3,3.58c1.08-0.63,2.32-0.91,3.59-0.79l2.58,0.26c0.51,0.05,1-0.21,1.25-0.65l4.16-7.39   c0.05-0.1,0.12-0.18,0.2-0.26l1.25-1.13c-0.85-0.09-1.53,0.32-1.63,0.39c-0.46,0.31-1.1,0.2-1.42-0.26   c-0.32-0.46-0.21-1.09,0.25-1.41c0.81-0.57,2.68-1.25,4.54-0.3l1-0.91c-0.41-0.17-0.84-0.3-1.29-0.37   c-0.98-0.18-1.94-0.15-2.86,0.08c-1.24,0.3-2.59,0.27-4.13-0.09c-1.61-0.34-3.07,0.14-4.12,1.21c-0.22,0.23-0.54,0.33-0.85,0.3   l-0.14-0.02c-0.09-0.01-0.19-0.03-0.29-0.03c-1.13,0-2.14,0.6-2.73,1.51c1.2-0.05,2.81,0.11,4.22,0.98   c0.87-0.65,1.98-0.99,3.34-0.99c0.56,0,1.02,0.46,1.02,1.02c0,0.56-0.46,1.02-1.02,1.02c-1.12,0-1.94,0.3-2.47,0.89   c-0.92,1.04-0.72,2.74-0.72,2.76c0.07,0.56-0.32,1.07-0.88,1.14c-0.04,0.01-0.09,0.01-0.13,0.01c-0.5,0-0.94-0.37-1.01-0.88   c-0.01-0.09-0.21-1.79,0.56-3.36c-1.61-0.85-3.69-0.48-4.1-0.39c-1.31,0.54-2.15,1.8-2.15,3.22c0,0.33,0.05,0.66,0.15,0.98   c0.28,0.93,0.21,1.94-0.22,2.93c-0.56,1.28-0.69,2.7-0.4,4.1C31.36,26.67,31.42,26.83,31.47,26.99z"/><path d="M39.76,57.28c0.01,0.01,0.08,0.04,0.1,0.05l4.94,2.65l2.52,1.35c0.19,0.1,0.39,0.19,0.59,0.27   c1.4,0.55,2.95,0.52,4.34-0.06c0.15-0.06,0.3-0.13,0.45-0.2l2.47-1.32l4.99-2.68l0,0l0,0c0.04-0.02,0.08-0.03,0.12-0.04l-0.01-0.01   c0.05-0.04,0.03-0.03,0.09-0.06c4.82-2.66,7.88-7.54,8.17-13.04c0.02-0.22,0.03-0.39,0.03-0.55l0.41-20.52   c0.06-3.4-1.21-6.62-3.6-9.04c-2.39-2.43-5.57-3.77-8.98-3.77H54.8l-5.76,5.22l-4.08,7.24c-0.65,1.15-1.92,1.81-3.24,1.68   l-2.58-0.26c-1.19-0.12-2.36,0.3-3.19,1.16l-4.77,4.86l0.27,13.41c0,0.14,0.01,0.27,0.02,0.4c0.26,5.53,3.39,10.57,8.18,13.21   L39.76,57.28z M60.44,28.77c3.67,0,6.65,2.98,6.65,6.65s-2.98,6.65-6.65,6.65c-3.67,0-6.65-2.98-6.65-6.65S56.78,28.77,60.44,28.77   z M52.28,46.5c3.4,0,6.36,2.19,7.37,5.44c0.24,0.77,0.1,1.58-0.38,2.23c-0.48,0.65-1.21,1.02-2.02,1.02H42.76   c-0.8,0-1.54-0.37-2.02-1.02c-0.48-0.65-0.62-1.46-0.38-2.23c1-3.25,3.96-5.44,7.37-5.44H52.28z M32.91,35.42   c0-3.67,2.98-6.65,6.65-6.65s6.65,2.98,6.65,6.65s-2.98,6.65-6.65,6.65S32.91,39.08,32.91,35.42z"/><path d="M41.59,35.42C41.59,35.42,41.59,35.42,41.59,35.42c0,1.12-0.91,2.03-2.03,2.03c-1.12,0-2.03-0.91-2.03-2.03c0,0,0,0,0,0   h-2.57c0,0,0,0,0,0c0,2.54,2.07,4.6,4.6,4.6s4.6-2.07,4.6-4.6c0,0,0,0,0,0H41.59z"/><path d="M53.66,63.14c-0.25,0.13-0.51,0.24-0.77,0.35c-1.85,0.74-3.9,0.75-5.75,0.01c-0.27-0.11-0.53-0.22-0.79-0.36l-2.68-1.44   l-3.37-1.8c-0.04,1.26-0.08,3.12-0.12,4.86l1.23,3.45c1.29,3.63,4.74,6.06,8.59,6.06c3.85,0,7.3-2.43,8.59-6.06l1.23-3.46   c-0.04-1.74-0.08-3.6-0.12-4.86l-3.04,1.63L53.66,63.14z"/></g><text x="0" y="115" fill="#000000" font-size="5px" font-weight="bold" font-family="'Helvetica Neue', Helvetica, Arial-Unicode, Arial, Sans-serif">Created by Athok</text><text x="0" y="120" fill="#000000" font-size="5px" font-weight="bold" font-family="'Helvetica Neue', Helvetica, Arial-Unicode, Arial, Sans-serif">from the Noun Project</text></svg>